<svg xmlns="http://www.w3.org/2000/svg" viewBox="0 0 130 40.3"><defs><style>.cls-1,.cls-2,.cls-3{fill:#fff;}.cls-1,.cls-2{opacity:0.6;}.cls-2,.cls-3{fill-rule:evenodd;}</style></defs><title>footer-logo</title><g id="Capa_2" data-name="Capa 2"><g id="Layer_1" data-name="Layer 1"><polygon class="cls-1" points="50.06 39.98 49.91 40.3 48.98 39.91 45.04 17.86 52.61 10.97 52.61 9.97 53.78 9.66 68.86 14.77 63.99 37.22 63.33 37.91 62.59 37.35 66.44 15.98 54.55 11.79 54.89 30.9 54.09 31.59 50.06 39.98"/><path class="cls-2" d="M54.94,5.91A4.88,4.88,0,0,1,59.86,0a7.24,7.24,0,0,1,6.87,5.91,4.87,4.87,0,0,1-4.92,5.91A7.23,7.23,0,0,1,54.94,5.91Z"/><polygon class="cls-2" points="56.28 14.8 64.51 17.78 61.6 36.54 55.97 31.99 56.28 14.8"/><path class="cls-3" d="M9.05,24l2.72,1.52c-.09.13-.22.35-.39.64a6.18,6.18,0,0,1-5.5,3.11A5.86,5.86,0,0,1,2,27.93,5.77,5.77,0,0,1,0,23.24,8.11,8.11,0,0,1,1.74,18.1a6.47,6.47,0,0,1,5.37-2.53,5.85,5.85,0,0,1,4.4,1.68,5.59,5.59,0,0,1,1.15,2L9.53,20A2.41,2.41,0,0,0,7.18,18.1a3.19,3.19,0,0,0-2.72,1.65,6.1,6.1,0,0,0-1,3.46,3.84,3.84,0,0,0,.81,2.62,2.15,2.15,0,0,0,1.67.76A2.71,2.71,0,0,0,7.53,26,5.47,5.47,0,0,0,9.05,24Z"/><path class="cls-3" d="M11.71,29l3-13.06h5.75a6.36,6.36,0,0,1,1.66.17,3.45,3.45,0,0,1,1.8,1.07,3.76,3.76,0,0,1,.85,2.55A4.25,4.25,0,0,1,24,22.25a3.34,3.34,0,0,1-1.08,1,9.32,9.32,0,0,1-1.43.59L23.58,29H20L18.3,24.3H16L15,29ZM17.39,18.3l-.81,3.57h2.55a2.79,2.79,0,0,0,1.52-.33,2,2,0,0,0,.87-1.76c0-1-.64-1.48-1.92-1.48Z"/><polygon class="cls-3" points="27.28 15.9 36.67 15.9 36.1 18.41 29.91 18.41 29.33 20.93 35.31 20.93 34.77 23.34 28.8 23.34 28.07 26.48 35.2 26.48 34.66 28.96 24.3 28.96 27.28 15.9"/><path class="cls-3" d="M35.37,29l3-13.06h4.89a8,8,0,0,1,2.55.37c2,.67,3,2.26,3,4.79a9.23,9.23,0,0,1-.65,3.44,7.09,7.09,0,0,1-1.91,2.78,6.49,6.49,0,0,1-3.07,1.44,18.66,18.66,0,0,1-3.46.24ZM42.55,18.4H40.94l-1.81,8h1.42A5.42,5.42,0,0,0,43.16,26a4.33,4.33,0,0,0,1.52-1.74,6.67,6.67,0,0,0,.76-3.13,2.6,2.6,0,0,0-.8-2.11A3.22,3.22,0,0,0,42.55,18.4Z"/><path class="cls-3" d="M75.49,24l2.72,1.52c-.08.13-.22.35-.39.64a6.17,6.17,0,0,1-5.49,3.11,5.86,5.86,0,0,1-3.94-1.36,5.77,5.77,0,0,1-2-4.69,8.11,8.11,0,0,1,1.74-5.14,6.47,6.47,0,0,1,5.37-2.53A5.85,5.85,0,0,1,78,17.25a5.45,5.45,0,0,1,1.15,2L76,20a2.4,2.4,0,0,0-2.35-1.87,3.21,3.21,0,0,0-2.72,1.65,6.18,6.18,0,0,0-1,3.46,3.79,3.79,0,0,0,.82,2.62,2.13,2.13,0,0,0,1.66.76A2.67,2.67,0,0,0,74,26,5.36,5.36,0,0,0,75.49,24Z"/><path class="cls-3" d="M91.09,25.26A7.42,7.42,0,0,1,88,28.5a7.17,7.17,0,0,1-3.4.78,5.76,5.76,0,0,1-4.51-1.71,5.68,5.68,0,0,1-1.3-3.95,8.67,8.67,0,0,1,1.65-5.13,6.78,6.78,0,0,1,5.86-2.94,6.08,6.08,0,0,1,4,1.33,5.22,5.22,0,0,1,1.78,4.24A8.68,8.68,0,0,1,91.09,25.26Zm-5.18-7a3.52,3.52,0,0,0-3.12,2.39,7.46,7.46,0,0,0-.71,3.12A3,3,0,0,0,82.92,26a2.6,2.6,0,0,0,1.87.7A3.52,3.52,0,0,0,88,24.58a7,7,0,0,0,.91-3.44,2.69,2.69,0,0,0-1.25-2.54A3.27,3.27,0,0,0,85.91,18.21Z"/><polygon class="cls-3" points="103.33 15.9 108.25 15.9 105.31 28.96 102.28 28.96 104.59 18.86 99.72 28.96 96.97 28.96 96.6 18.71 94.38 28.96 91.31 28.96 94.23 15.9 99.06 15.9 99.28 24.47 103.33 15.9"/><polygon class="cls-3" points="109.02 15.9 118.42 15.9 117.85 18.41 111.65 18.41 111.08 20.93 117.05 20.93 116.51 23.34 110.54 23.34 109.82 26.48 116.94 26.48 116.4 28.96 106.04 28.96 109.02 15.9"/><path class="cls-3" d="M117,29l3-13.06h5.76a6.5,6.5,0,0,1,1.67.17,3.46,3.46,0,0,1,1.79,1.07,3.76,3.76,0,0,1,.85,2.55,4.25,4.25,0,0,1-.78,2.56,3.27,3.27,0,0,1-1.09,1,8.34,8.34,0,0,1-1.42.59L128.83,29h-3.55l-1.72-4.66h-2.29l-1,4.66Zm5.67-10.66-.8,3.57h2.54a2.79,2.79,0,0,0,1.52-.33,2,2,0,0,0,.87-1.76c0-1-.64-1.48-1.92-1.48Z"/></g></g></svg>