<svg id="Capa_1" data-name="Capa 1" xmlns="http://www.w3.org/2000/svg" viewBox="0 0 279.42 133.6"><title>percentage-icon</title><path d="M904.26,504.61a40.43,40.43,0,1,0,14.93,78C908,605.51,892,617.77,891.72,618a7.73,7.73,0,0,0,9.21,12.41c1.52-1.13,37.22-28.1,43.41-79a40.41,40.41,0,0,0-40.08-46.81Zm0,65.41a25,25,0,1,1,25.14-25A25.09,25.09,0,0,1,904.26,570Z" transform="translate(-863.66 -504.61)" style="fill:#00695c"/><path d="M1001.75,505.05a40.56,40.56,0,0,0-40.6,40.43v52.3a40.6,40.6,0,0,0,81.19,0v-52.3A40.56,40.56,0,0,0,1001.75,505.05Zm25.14,92.73a25.15,25.15,0,0,1-50.29,0v-52.3a25.15,25.15,0,0,1,50.29,0Z" transform="translate(-863.66 -504.61)" style="fill:#00695c"/><rect x="1097.44" y="502.86" width="15.1" height="137.28" rx="7.55" transform="translate(-429.87 -980.54) rotate(30)" style="fill:#00695c"/><circle cx="264.34" cy="99.39" r="10" style="fill:#00695c"/><circle cx="215.34" cy="35.39" r="10" style="fill:#00695c"/></svg>